<svg width="53" height="41" fill="none" xmlns="http://www.w3.org/2000/svg"><path d="M14.562 21.714c2.71 0 4.854.902 6.435 2.707 1.693 1.692 2.54 3.947 2.54 6.767 0 3.045-1.016 5.47-3.048 7.274C18.569 40.154 15.917 41 12.53 41c-3.95 0-7.055-1.523-9.313-4.568C1.072 33.387 0 29.045 0 23.406c0-5.075 1.129-9.756 3.387-14.041C5.644 4.966 9.03.568 13.547-3.831c.112-.113.281-.169.507-.169.339 0 .621.17.847.508.226.338.226.62 0 .845C9.37 2.993 6.604 9.647 6.604 17.316c0 3.158.564 5.47 1.693 6.936 1.016-1.692 3.104-2.538 6.265-2.538zm29.464 0c2.709 0 4.854.902 6.434 2.707 1.693 1.692 2.54 3.947 2.54 6.767 0 3.045-1.016 5.47-3.048 7.274C48.033 40.154 45.38 41 41.994 41c-3.951 0-7.056-1.523-9.313-4.568-2.145-3.045-3.218-7.387-3.218-13.026 0-5.075 1.13-9.756 3.387-14.041C35.108 4.966 38.494.568 43.01-3.831c.113-.113.282-.169.508-.169.338 0 .62.17.846.508.226.338.226.62 0 .845-5.531 5.64-8.297 12.294-8.297 19.963 0 3.158.565 5.47 1.693 6.936 1.016-1.692 3.105-2.538 6.266-2.538z" fill="#AAA"/></svg>